<?xml version="1.0" encoding="utf-8"?>
<!-- Generator: Adobe Illustrator 19.0.0, SVG Export Plug-In . SVG Version: 6.00 Build 0)  -->
<svg version="1.1" id="Capa_1" xmlns="http://www.w3.org/2000/svg" xmlns:xlink="http://www.w3.org/1999/xlink" x="0px" y="0px"
	 viewBox="-49 303 512 350" style="enable-background:new -49 303 512 350;" xml:space="preserve">
<style type="text/css">
	.st0{fill:#FFFFFF;}
</style>
<path class="st0" d="M431,303H-17c-17.6,0-32,14.4-32,32v32h512v-32C463,317.4,448.7,303,431,303z"/>
<path class="st0" d="M-49,429v192c0,17.7,14.4,32,32,32h448c17.7,0,32-14.3,32-32V429H-49z M436,473c0,6.6-5.4,12-12,12h-73
	c-6.6,0-12-5.4-12-12v-13c0-6.6,5.4-12,12-12h73c6.6,0,12,5.4,12,12V473z"/>
</svg>
