<?xml version="1.0" encoding="utf-8"?>
<!-- Generator: Adobe Illustrator 22.0.0, SVG Export Plug-In . SVG Version: 6.00 Build 0)  -->
<svg version="1.1" id="Layer_1" xmlns="http://www.w3.org/2000/svg" xmlns:xlink="http://www.w3.org/1999/xlink" x="0px" y="0px"
	 viewBox="0 0 135.9 143.4" style="enable-background:new 0 0 135.9 143.4;" xml:space="preserve">
<style type="text/css">
	.st0{fill:#FCFCFC;}
</style>
<g>
	<path class="st0" d="M43.3,40.3c-16.3,0-29.5,13.2-29.5,29.5S27,99.4,43.3,99.4s29.5-13.2,29.5-29.5S59.6,40.3,43.3,40.3z
		 M42.6,45.3c0.2,0,0.5-0.1,0.7-0.1c0.2,0,0.5,0.1,0.7,0.1c1.8,2.8,4.1,7.3,5.5,13.5H37.1C38.5,52.6,40.8,48.1,42.6,45.3z
		 M50.3,63.7c0.2,1.9,0.4,4,0.4,6.2c0,2.2-0.2,4.2-0.4,6.2h-14c-0.2-1.9-0.4-4-0.4-6.2c0-2.2,0.2-4.2,0.4-6.2H50.3z M36.3,46.3
		c-1.6,3.2-3.2,7.3-4.2,12.4H21.5C24.5,52.8,29.8,48.3,36.3,46.3z M18.7,69.8c0-2.1,0.4-4.2,0.9-6.2h11.8c-0.2,2-0.3,4-0.3,6.2
		c0,2.2,0.1,4.2,0.4,6.2H19.6C19.1,74,18.7,72,18.7,69.8z M21.5,80.9h10.7c1,5.1,2.6,9.3,4.2,12.4C29.8,91.4,24.5,86.9,21.5,80.9z
		 M44,94.4c-0.2,0-0.5,0.1-0.7,0.1c-0.2,0-0.5-0.1-0.7-0.1c-1.8-2.7-4.1-7.2-5.5-13.5h12.3C48.1,87.2,45.8,91.7,44,94.4z M50.3,93.3
		c1.6-3.1,3.2-7.3,4.2-12.4h10.7C62.2,86.9,56.8,91.4,50.3,93.3z M67.9,69.8c0,2.1-0.4,4.2-0.9,6.2H55.3c0.2-2,0.4-4,0.4-6.2
		c0-2.2-0.1-4.2-0.3-6.2h11.8C67.6,65.7,67.9,67.7,67.9,69.8z M54.5,58.8c-1-5.1-2.6-9.2-4.2-12.4c6.5,1.9,11.8,6.5,14.9,12.4
		L54.5,58.8L54.5,58.8z"/>
	<rect x="18.7" y="114.2" class="st0" width="49.2" height="4.9"/>
	
		<rect x="98.4" y="81.6" transform="matrix(0.2589 -0.9659 0.9659 0.2589 -4.6335 162.1136)" class="st0" width="9.8" height="4.9"/>
	
		<rect x="77.8" y="112.5" transform="matrix(0.2588 -0.9659 0.9659 0.2588 -40.6173 177.0319)" class="st0" width="34.5" height="4.9"/>
	<path class="st0" d="M129.6,14.6L72.5-0.7C71.6-0.9,70.8-1,69.9-1c-4.3,0-8.3,2.9-9.5,7.3l-5.1,19.2H3.9c-2.7,0-4.9,2.2-4.9,4.9
		v98.5c0,2.7,2.2,4.9,4.9,4.9h56.9l34.4,9.2c0.9,0.2,1.7,0.3,2.6,0.3c4.3,0,8.3-2.9,9.5-7.3l29.3-109.4
		C138,21.4,134.8,16,129.6,14.6z M3.9,128.9V30.4h73.9c2.7,0,4.9,2.2,4.9,4.9V124c0,2.7-2.2,4.9-4.9,4.9H3.9z M131.8,25.4
		l-29.3,109.4c-0.6,2.2-2.5,3.7-4.8,3.7c-0.4,0-0.9-0.1-1.3-0.2l-17.2-4.6c4.7-0.7,8.4-4.8,8.4-9.7V85l2.5,0.7l2.5-9.5L88,74.9
		L87.6,76V36.9c1.5,0.4,3.3,0.9,5,1.3l5.8,19l4.1,1.1l-0.4-17.6c2.7,0.7,5.4,1.4,7.2,1.9l3.2,5.6l2.7,0.7l-0.5-7.8l4.3-6.5l-2.7-0.7
		l-5.5,3.3c-1.8-0.5-4.5-1.2-7.2-1.9l9.1-15l-4.1-1.1L94.1,32.8c-2.9-0.8-6-1.6-7.7-2.1c-1.7-3.1-4.9-5.2-8.6-5.2H60.4l4.8-17.9
		c0.6-2.2,2.5-3.7,4.8-3.7c0.4,0,0.9,0.1,1.3,0.2l57.1,15.3c1.3,0.3,2.3,1.2,3,2.3C132,22.8,132.1,24.1,131.8,25.4z"/>
	
		<rect x="100.2" y="66.2" transform="matrix(0.2558 -0.9667 0.9667 0.2558 10.0166 150.3374)" class="st0" width="4.9" height="4.8"/>
	
		<rect x="109.5" y="68.7" transform="matrix(0.2558 -0.9667 0.9667 0.2558 14.572 161.2207)" class="st0" width="4.9" height="4.8"/>
	<rect x="90.8" y="63.8" transform="matrix(0.2558 -0.9667 0.9667 0.2558 5.4544 139.4604)" class="st0" width="4.9" height="4.8"/>
</g>
</svg>
