<?xml version="1.0" encoding="iso-8859-1"?>
<!-- Generator: Adobe Illustrator 22.0.0, SVG Export Plug-In . SVG Version: 6.00 Build 0)  -->
<svg version="1.1" id="Capa_1" xmlns="http://www.w3.org/2000/svg" xmlns:xlink="http://www.w3.org/1999/xlink" x="0px" y="0px"
	 viewBox="-49 141 512 512" style="enable-background:new -49 141 512 512;" xml:space="preserve">
<g>
	<path style="fill:#FFFFFF;" d="M431,210H-17c-17.632,0-32,14.368-32,32v32h512v-32C463,224.368,448.664,210,431,210z"/>
	<path style="fill:#FFFFFF;" d="M-49,338v192c0,17.664,14.368,32,32,32h448c17.664,0,32-14.336,32-32V338H-49z M41,479
		c0,6.6-5.4,12-12,12h-43c-6.6,0-12-5.4-12-12v-6c0-6.6,5.4-12,12-12h43c6.6,0,12,5.4,12,12V479z M41,420c0,6.6-5.4,12-12,12h-43
		c-6.6,0-12-5.4-12-12v-6c0-6.6,5.4-12,12-12h43c6.6,0,12,5.4,12,12V420z M119,479c0,6.6-5.4,12-12,12H64c-6.6,0-12-5.4-12-12v-6
		c0-6.6,5.4-12,12-12h43c6.6,0,12,5.4,12,12V479z M119,420c0,6.6-5.4,12-12,12H64c-6.6,0-12-5.4-12-12v-6c0-6.6,5.4-12,12-12h43
		c6.6,0,12,5.4,12,12V420z M198,420c0,6.6-5.4,12-12,12h-43c-6.6,0-12-5.4-12-12v-6c0-6.6,5.4-12,12-12h43c6.6,0,12,5.4,12,12V420z
		 M351,498c-12.352,0-23.488-4.8-32-12.448C310.488,493.2,299.352,498,287,498c-26.496,0-48-21.504-48-48c0-26.496,21.504-48,48-48
		c12.352,0,23.488,4.8,32,12.448C327.512,406.8,338.648,402,351,402c26.496,0,48,21.504,48,48C399,476.496,377.496,498,351,498z"/>
</g>
</svg>
