<?xml version="1.0" encoding="utf-8"?>
<!-- Generator: Adobe Illustrator 22.0.0, SVG Export Plug-In . SVG Version: 6.00 Build 0)  -->
<svg version="1.1" id="Layer_1" xmlns="http://www.w3.org/2000/svg" xmlns:xlink="http://www.w3.org/1999/xlink" x="0px" y="0px"
	 viewBox="0 0 346 395" style="enable-background:new 0 0 346 395;" xml:space="preserve">
<style type="text/css">
	.st0{fill:#FFFFFF;}
</style>
<path class="st0" d="M290.4,194.8l-1.2,2.5c-2.1-3.5-5.1-8.9-8.5-14.9c-9.5-16.9-22.4-40.1-35.8-58.2l-0.3-0.4
	c-13.3-16.5-28.1-24.5-45.3-24.5c-5.6,0-11.5,0.9-17.4,2.7c-20.3,6-23.4,18.8-23.8,24c-0.8,10.1,7,29,27.7,38.8l0,15
	c10.3-2.8,22.9-8.3,23.9-16.5c0.8-6.8-2.7-13.4-8.9-16.4c-18.5-8.8-21.9-16.5-21.6-19.3c1.3-12.4,27.4-16.9,48.7,9.4
	c12.5,17,25.1,39.4,34.2,55.8c3,5.3,5.5,9.9,7.6,13.5l-60.7,131c-6-1.6-11.2-2.3-16.5-2.3c-3.3,0-6.3,0.3-9.3,0.5
	c-3.2,0.3-6.6,0.6-10.8,0.6c-2.8,0-5.8-0.1-9.1-0.4c-19.3-1.6-50.4-16.7-64.6-24.7c-7-5.2-7.7-8.5-6.4-15.3H71.1
	c-1.2,10.1,0.6,21.9,15.8,32.9l0.5,0.3l0.5,0.3c4.5,2.6,45.2,25.4,73.8,27.7c3.8,0.3,7.4,0.5,10.8,0.5c5.2,0,9.2-0.4,12.8-0.7
	c2.7-0.2,5-0.4,7.3-0.4c3.8,0,8.7,0.5,18.4,4l2.1,0.8l-1.1,2.3l52.8,24.5l78.4-168.5L290.4,194.8z M290.4,194.8"/>
<path class="st0" d="M178.2,255.2V175l-5.7-4c-6.1-3.6-11.2-8.1-15.3-12.9v73.9H21V53.5h136.2v49.7c4.3-3.6,10.1-6.9,18-9.2
	c1-0.3,2-0.6,3-0.8V30.3c0-16.7-13.6-30.3-30.3-30.3H30.3C13.6,0,0,13.6,0,30.3v224.9c0,16.7,13.6,30.3,30.3,30.3h117.6
	C164.7,285.5,178.2,272,178.2,255.2L178.2,255.2z M137.2,28c3.6,0,6.5,2.9,6.5,6.5c0,3.6-2.9,6.5-6.5,6.5s-6.5-2.9-6.5-6.5
	C130.7,30.9,133.6,28,137.2,28L137.2,28z M61,29.2h56.3v3.6H61V29.2z M89.1,262.2"/>
<path class="st0" d="M46.1,199.1v14.6h84v-14.6c0-17-10.6-31.5-25.6-37.3c14-6.6,23.7-20.8,23.7-37.2c0-22.6-18.4-41.1-41.1-41.1
	c-9.3,0-18,3.1-24.9,8.4c-4-1.3-6.3-4.9-6.3-4.9c0.4,3.1,2,5.4,3.7,7.1c-0.3,0.3-0.6,0.6-0.9,0.9c-3.8-0.6-6.5-3.4-6.5-3.4
	c0.9,2.6,2.6,4.4,4.4,5.7c-6.5,7.3-10.4,16.8-10.4,27.3c0,16.8,10.1,31.2,24.6,37.6C56.2,168.2,46.1,182.4,46.1,199.1L46.1,199.1z
	 M52.9,124.5"/>
</svg>
