<?xml version="1.0" encoding="utf-8"?>
<!-- Generator: Adobe Illustrator 19.0.0, SVG Export Plug-In . SVG Version: 6.00 Build 0)  -->
<svg version="1.1" id="Layer_1" xmlns="http://www.w3.org/2000/svg" xmlns:xlink="http://www.w3.org/1999/xlink" x="0px" y="0px"
	 viewBox="0 0 130 131.4" style="enable-background:new 0 0 130 131.4;" xml:space="preserve">
<style type="text/css">
	.st0{fill:#FDFEFF;}
</style>
<g>
	<path class="st0" d="M42.9,37.4c-14.7,0-26.6,11.9-26.6,26.6s11.9,26.6,26.6,26.6S69.5,78.7,69.5,64S57.6,37.4,42.9,37.4z
		 M42.2,41.9c0.2,0,0.4-0.1,0.6-0.1c0.2,0,0.4,0.1,0.7,0.1c1.7,2.6,3.7,6.6,4.9,12.1H37.3C38.6,48.4,40.6,44.4,42.2,41.9z
		 M49.2,58.4c0.2,1.7,0.3,3.6,0.3,5.5c0,2-0.1,3.8-0.4,5.5H36.6c-0.2-1.7-0.4-3.6-0.4-5.5c0-2,0.1-3.8,0.3-5.5H49.2z M36.6,42.8
		c-1.5,2.9-2.9,6.6-3.8,11.2h-9.6C25.9,48.6,30.7,44.6,36.6,42.8z M20.7,64c0-1.9,0.3-3.8,0.8-5.5h10.6c-0.2,1.8-0.3,3.6-0.3,5.5
		c0,2,0.1,3.8,0.3,5.5H21.5C21,67.7,20.7,65.9,20.7,64z M23.2,73.9h9.6c0.9,4.6,2.4,8.3,3.8,11.2C30.7,83.4,25.9,79.3,23.2,73.9z
		 M43.5,86.1c-0.2,0-0.4,0.1-0.6,0.1c-0.2,0-0.4-0.1-0.6-0.1c-1.6-2.4-3.7-6.5-4.9-12.1h11.1C47.2,79.6,45.1,83.6,43.5,86.1z
		 M49.2,85.1c1.4-2.8,2.9-6.6,3.8-11.2h9.6C59.8,79.3,55,83.4,49.2,85.1z M65.1,64c0,1.9-0.3,3.8-0.8,5.5H53.7
		c0.2-1.8,0.3-3.6,0.3-5.5c0-2-0.1-3.8-0.3-5.5h10.6C64.7,60.2,65.1,62,65.1,64z M53,54c-0.9-4.6-2.3-8.3-3.8-11.2
		C55,44.6,59.8,48.6,62.6,54L53,54L53,54z"/>
	<rect id="XMLID_35_" x="20.7" y="103.9" class="st0" width="44.3" height="4.4"/>
	
		<rect id="XMLID_34_" x="92.5" y="74.6" transform="matrix(-0.2589 0.9659 -0.9659 -0.2589 196.1751 3.0576)" class="st0" width="8.9" height="4.4"/>
	
		<rect id="XMLID_33_" x="73.9" y="102.4" transform="matrix(-0.2588 0.9659 -0.9659 -0.2588 213.6581 45.2736)" class="st0" width="31" height="4.4"/>
	<path class="st0" d="M120.5,14.3L69.2,0.5c-0.8-0.2-1.5-0.3-2.3-0.3c-3.9,0-7.5,2.6-8.6,6.6l-4.6,17.3H7.4c-2.4,0-4.4,2-4.4,4.4
		v88.7c0,2.4,2,4.4,4.4,4.4h51.2l30.9,8.3c0.8,0.2,1.5,0.3,2.3,0.3c3.9,0,7.5-2.6,8.6-6.6l26.4-98.5
		C128.1,20.4,125.3,15.5,120.5,14.3z M7.4,117.2V28.5h66.5c2.4,0,4.4,2,4.4,4.4v79.8c0,2.4-2,4.4-4.4,4.4H7.4z M122.5,24l-26.4,98.5
		c-0.5,1.9-2.3,3.3-4.3,3.3c-0.4,0-0.8-0.1-1.2-0.2l-15.5-4.1c4.3-0.6,7.5-4.3,7.5-8.7V77.6l2.3,0.6l2.3-8.6l-4.3-1.1l-0.3,1.1V34.3
		c1.4,0.4,3,0.8,4.5,1.2l5.2,17.1l3.7,1l-0.3-15.8c2.4,0.6,4.9,1.3,6.5,1.7l2.8,5l2.4,0.7l-0.4-7l3.9-5.8l-2.4-0.7l-5,2.9
		c-1.6-0.4-4.1-1.1-6.5-1.7l8.2-13.5l-3.7-1L88.6,30.6c-2.6-0.7-5.4-1.4-6.9-1.9c-1.5-2.8-4.4-4.7-7.8-4.7H58.3l4.3-16.1
		c0.5-1.9,2.3-3.3,4.3-3.3c0.4,0,0.8,0.1,1.2,0.2l51.4,13.8c1.1,0.3,2.1,1,2.7,2.1C122.7,21.6,122.8,22.8,122.5,24z"/>
	
		<rect id="XMLID_29_" x="94.1" y="60.7" transform="matrix(-0.2558 0.9667 -0.9667 -0.2558 181.7631 -14.0996)" class="st0" width="4.4" height="4.4"/>
	
		<rect id="XMLID_28_" x="102.5" y="63" transform="matrix(-0.2558 0.9667 -0.9667 -0.2558 194.4905 -19.4269)" class="st0" width="4.4" height="4.4"/>
	
		<rect id="XMLID_27_" x="85.7" y="58.5" transform="matrix(-0.2558 0.9667 -0.9667 -0.2558 169.0429 -8.7643)" class="st0" width="4.4" height="4.4"/>
</g>
</svg>
