<?xml version="1.0" encoding="iso-8859-1"?>
<!-- Generator: Adobe Illustrator 22.0.0, SVG Export Plug-In . SVG Version: 6.00 Build 0)  -->
<svg version="1.1" id="Capa_1" xmlns="http://www.w3.org/2000/svg" xmlns:xlink="http://www.w3.org/1999/xlink" x="0px" y="0px"
	 viewBox="-49 141 512 512" style="enable-background:new -49 141 512 512;" xml:space="preserve">
<path style="fill:#FFFFFF;" d="M431,237H-17c-17.632,0-32,14.368-32,32v32h512v-32C463,251.368,448.664,237,431,237z"/>
<path style="fill:#FFFFFF;" d="M-49,365v192c0,17.664,14.368,32,32,32h448c17.664,0,32-14.336,32-32V365H-49z M436,409
	c0,6.6-5.4,12-12,12h-73c-6.6,0-12-5.4-12-12v-13c0-6.6,5.4-12,12-12h73c6.6,0,12,5.4,12,12V409z"/>
</svg>
