<?xml version="1.0" encoding="utf-8"?>
<!-- Generator: Adobe Illustrator 19.0.0, SVG Export Plug-In . SVG Version: 6.00 Build 0)  -->
<svg version="1.1" id="Layer_1" xmlns="http://www.w3.org/2000/svg" xmlns:xlink="http://www.w3.org/1999/xlink" x="0px" y="0px"
	 viewBox="-252 350.5 107 92.4" style="enable-background:new -252 350.5 107 92.4;" xml:space="preserve">
<style type="text/css">
	.st0{fill:#FFFFFF;}
</style>
<g>
	<g>
		<path class="st0" d="M-162.8,442.9h-72.7c-8.3,0-15-6.7-15-15v-62.4c0-8.3,6.7-15,15-15h72.7c8.3,0,15,6.7,15,15v62.4
			C-147.9,436.2-154.6,442.9-162.8,442.9z M-235.5,357.3c-4.5,0-8.1,3.6-8.1,8.1v62.4c0,4.5,3.6,8.1,8.1,8.1h72.7
			c4.5,0,8.1-3.6,8.1-8.1v-62.3c0-4.5-3.6-8.1-8.1-8.1h-72.7V357.3z"/>
	</g>
	<g>
		<rect x="-247.9" y="377" class="st0" width="95.8" height="6.8"/>
	</g>
	<g>
		<rect x="-247.9" y="365" class="st0" width="95.8" height="6.8"/>
	</g>
	<g>
		<path class="st0" d="M-147,431.8h-42.8v-0.2c-10.6-1.3-18.8-10.3-18.8-21.2c0-10.9,8.2-20,18.8-21.2V389h1.6c0.4,0,0.9,0,1.3,0
			h0.5h39.4V431.8z M-182.9,424.9h29.1v-29.1h-29.1v0.2l-4-0.2c-0.1,0-0.2,0-0.3,0c-8,0-14.5,6.5-14.5,14.5s6.5,14.5,14.5,14.5
			c0.1,0,0.2,0,0.3,0l4-0.2V424.9z"/>
	</g>
	<g>
		<g>
			<path class="st0" d="M-234.4,411.4c0.1,6.4,4.2,9,8.9,9c3.4,0,5.4-0.6,7.2-1.3l0.8,3.4c-1.7,0.7-4.5,1.5-8.6,1.5
				c-8,0-12.8-5.3-12.8-13.1c0-7.8,4.6-14,12.2-14c8.5,0.1,10.7,7.5,10.7,12.3c0,1-0.1,1.7-0.2,2.2
				C-216.2,411.4-234.4,411.4-234.4,411.4z M-220.6,408c0.1-3-1.2-7.7-6.5-7.7c-4.8,0-6.9,4.4-7.2,7.7H-220.6z"/>
		</g>
	</g>
</g>
</svg>
