<?xml version="1.0" encoding="utf-8"?>
<!-- Generator: Adobe Illustrator 22.0.0, SVG Export Plug-In . SVG Version: 6.00 Build 0)  -->
<svg version="1.1" id="Layer_1" xmlns="http://www.w3.org/2000/svg" xmlns:xlink="http://www.w3.org/1999/xlink" x="0px" y="0px"
	 viewBox="0 0 133 133" style="enable-background:new 0 0 133 133;" xml:space="preserve">
<style type="text/css">
	.st0{fill:#FFFFFF;}
</style>
<path class="st0" d="M131,87.9c0-2.3-1.7-3.8-4.1-3.8c-1.4,0-3.7,0.7-5.7,1.9c-2.6-5.6-7-10.5-10.1-12.1c-2.1-1-9-2.2-15.3-2.2
	c-6.3,0-13.3,1.1-15.3,2.2c-3.1,1.5-7.4,6.5-10.1,12.1c-2-1.2-4.3-1.9-5.7-1.9c-1,0-1.9,0.3-2.6,0.8c-0.9,0.7-1.5,1.8-1.5,3
	c0,4.2,3.3,7.2,3.7,7.5c0.3,0.2,0.6,0.4,1,0.5c-1.3,3.6-1.9,7.6-1.9,11c0,4,0.4,10.9,2.7,14.5v4.5c0,3,2.4,5.4,5.4,5.4h5.4
	c3,0,5.4-2.4,5.4-5.4v-1.8c3.3,0.8,8.4,1.8,13.5,1.8s10.3-1,13.5-1.8v1.8c0,3,2.4,5.4,5.4,5.4h5.4c3,0,5.4-2.4,5.4-5.4v-4.5
	c2.3-3.5,2.7-10.4,2.7-14.5c0-3.4-0.6-7.4-1.9-11c0.3-0.1,0.7-0.3,1-0.5C127.7,95,131,92.1,131,87.9z M82.9,78.6
	c1-0.5,6.8-1.6,12.9-1.6s11.9,1.1,12.9,1.6c2.1,1,6.8,6.4,8.7,12.3c-5.1,0.7-17.1,2.3-21.6,2.3s-16.5-1.6-21.6-2.3
	C76.1,85.1,80.8,79.7,82.9,78.6z M67.6,91c-0.2-0.2-0.4-0.5-0.8-0.9c0.4,0.2,0.7,0.4,1,0.5C67.7,90.8,67.7,90.9,67.6,91z
	 M76.8,125.8h-5.4v-2.7h5.4V125.8z M120.2,125.8h-5.4v-2.7h5.4V125.8z M121.4,117.7H112c-0.3,0-0.6,0-0.9,0.1
	c-0.1,0-7.8,2.6-15.4,2.6c-7.6,0-15.3-2.5-15.4-2.6c-0.1,0-0.2,0-0.3,0c-0.2,0-0.4-0.1-0.6-0.1h-9.4c-0.7-1.6-1.5-5.4-1.5-10.8
	c0-0.9,0.1-1.8,0.2-2.7c3.6,0.1,8,1.3,8,2.7c0,1.5,1.2,2.7,2.7,2.7s2.7-1.2,2.7-2.7c0-6.6-8.9-7.8-12.3-8.1c0.3-1,0.7-1.9,1.1-2.8
	c0,0,0,0,0,0c0.8,0.1,18.6,2.7,24.8,2.7s24-2.6,24.8-2.7c0,0,0,0,0,0c0.4,0.9,0.8,1.8,1.1,2.8c-3.4,0.2-12.3,1.5-12.3,8.1
	c0,1.5,1.2,2.7,2.7,2.7s2.7-1.2,2.7-2.7c0-1.4,4.3-2.6,8-2.7c0.1,0.9,0.2,1.8,0.2,2.7C122.9,112.3,122.1,116,121.4,117.7z M124,91
	c-0.1-0.1-0.2-0.2-0.3-0.4c0.3-0.2,0.7-0.4,1-0.6C124.5,90.5,124.2,90.8,124,91z M117.5,1.2H14.5C7.1,1.2,1,7.3,1,14.7v70.4
	c0,7.5,6.1,13.5,13.5,13.5h40.1c1.5,0,2.7-1.2,2.7-2.7s-1.2-2.7-2.7-2.7H14.5c-4.5,0-8.1-3.6-8.1-8.1V22.9h119.2V76
	c0,1.5,1.2,2.7,2.7,2.7c1.5,0,2.7-1.2,2.7-2.7V14.7C131,7.3,124.9,1.2,117.5,1.2z M125.6,17.4H6.4v-2.7c0-4.5,3.6-8.1,8.1-8.1h102.9
	c4.5,0,8.1,3.6,8.1,8.1V17.4z M50.9,56.7c-0.2,2.9-1.7,5.9-3.9,7.9c-0.7,0.7-1.1,1.7-0.8,2.7l1.1,4.4c0.2,1,1,1.7,2,2l9.7,2.4
	c1.3,0.3,2.6,1,3.7,1.9c1.1,1,2.9,0.8,3.8-0.3c1-1.1,0.8-2.9-0.3-3.8c-1.8-1.5-3.7-2.5-5.9-3l-8.1-2l-0.3-1.4
	c2.1-2.3,3.6-5.3,4.2-8.4c1.4-0.7,2.5-2.2,2.7-3.9l0.6-4.7c0.2-1.4-0.3-2.9-1.2-3.9c-0.3-0.3-0.6-0.6-1-0.9l0.1-2.9l0.5-0.5
	c1.4-1.5,3.3-4.7,0.3-9.2c-1.4-2.2-4.3-4.8-10.2-4.8c-1.7,0-5.6,0-9.4,2.4C27.3,31,26,37.1,26,41.6c0,0.9,0.2,2.6,0.3,4
	c-0.4,0.3-0.8,0.6-1.1,0.9c-1,1.1-1.4,2.5-1.2,4l0.6,4.7c0.2,1.8,1.3,3.2,3,3.9c0.6,3,2,5.8,4,8.1l-0.4,1.6l-8.1,2
	c-6.6,1.6-11.2,7.5-11.2,14.3c0,1.5,1.2,2.7,2.7,2.7h38.2c1.5,0,2.7-1.2,2.7-2.7c0-1.5-1.2-2.7-2.7-2.7l-35.1,0
	c0.9-3.1,3.4-5.6,6.7-6.4l9.7-2.4c1-0.2,1.7-1,2-2l1.2-4.6c0.2-0.9-0.1-2-0.8-2.6c-2.1-2-3.5-4.9-3.7-7.8c-0.1-1.4-1.3-2.2-2.7-2.2
	l-0.7-4.3c0.8,0,1.5-0.3,2-0.9c0.5-0.6,0.8-1.4,0.7-2.1c-0.2-1.6-0.5-4.6-0.5-5.5c0-2.8,0-5.4,7.9-5.5c0.6,0,1.1-0.2,1.5-0.5
	c2.6-1.8,5.5-1.8,7-1.8c4.2,0,5.3,1.7,5.7,2.3c1.1,1.7,0.6,2.2,0.3,2.5l-1.2,1.2c-0.5,0.5-0.8,1.1-0.8,1.8l-0.3,5.9
	c0,0.7,0.1,1.2,0.6,1.8c0.5,0.5,1,0.6,1.8,0.6l-0.4,4.4C52.2,54.2,51,55.3,50.9,56.7z M117.5,44.5c1.5,0,2.7-1.2,2.7-2.7
	c0-1.5-1.2-2.7-2.7-2.7h-10.8c-1.5,0-2.7,1.2-2.7,2.7c0,1.5,1.2,2.7,2.7,2.7H117.5z M79.5,60.8h37.9c1.5,0,2.7-1.2,2.7-2.7
	c0-1.5-1.2-2.7-2.7-2.7H79.5c-1.5,0-2.7,1.2-2.7,2.7C76.8,59.6,78,60.8,79.5,60.8z M79.5,44.5h16.3c1.5,0,2.7-1.2,2.7-2.7
	c0-1.5-1.2-2.7-2.7-2.7H79.5c-1.5,0-2.7,1.2-2.7,2.7C76.8,43.3,78,44.5,79.5,44.5z M101.2,104.1H90.4c-1.5,0-2.7,1.2-2.7,2.7
	s1.2,2.7,2.7,2.7h10.8c1.5,0,2.7-1.2,2.7-2.7S102.7,104.1,101.2,104.1z"/>
</svg>
