<?xml version="1.0" encoding="utf-8"?>
<!-- Generator: Adobe Illustrator 19.0.0, SVG Export Plug-In . SVG Version: 6.00 Build 0)  -->
<svg version="1.1" id="Capa_1" xmlns="http://www.w3.org/2000/svg" xmlns:xlink="http://www.w3.org/1999/xlink" x="0px" y="0px"
	 viewBox="-49 301 512 352" style="enable-background:new -49 301 512 352;" xml:space="preserve">
<style type="text/css">
	.st0{fill:#FFFFFF;}
</style>
<g>
	<path class="st0" d="M432,301H-16c-17.6,0-32,14.4-32,32v32h512v-32C464,315.4,449.7,301,432,301z"/>
	<path class="st0" d="M-48,429v192c0,17.7,14.4,32,32,32h448c17.7,0,32-14.3,32-32V429H-48z M42,570c0,6.6-5.4,12-12,12h-43
		c-6.6,0-12-5.4-12-12v-6c0-6.6,5.4-12,12-12h43c6.6,0,12,5.4,12,12V570z M42,511c0,6.6-5.4,12-12,12h-43c-6.6,0-12-5.4-12-12v-6
		c0-6.6,5.4-12,12-12h43c6.6,0,12,5.4,12,12V511z M120,570c0,6.6-5.4,12-12,12H65c-6.6,0-12-5.4-12-12v-6c0-6.6,5.4-12,12-12h43
		c6.6,0,12,5.4,12,12V570z M120,511c0,6.6-5.4,12-12,12H65c-6.6,0-12-5.4-12-12v-6c0-6.6,5.4-12,12-12h43c6.6,0,12,5.4,12,12V511z
		 M199,511c0,6.6-5.4,12-12,12h-43c-6.6,0-12-5.4-12-12v-6c0-6.6,5.4-12,12-12h43c6.6,0,12,5.4,12,12V511z M352,589
		c-12.4,0-23.5-4.8-32-12.4c-8.5,7.6-19.6,12.4-32,12.4c-26.5,0-48-21.5-48-48c0-26.5,21.5-48,48-48c12.4,0,23.5,4.8,32,12.4
		c8.5-7.6,19.6-12.4,32-12.4c26.5,0,48,21.5,48,48C400,567.5,378.5,589,352,589z"/>
</g>
</svg>
