<?xml version="1.0" encoding="utf-8"?>
<!-- Generator: Adobe Illustrator 19.0.0, SVG Export Plug-In . SVG Version: 6.00 Build 0)  -->
<svg version="1.1" id="Layer_1" xmlns="http://www.w3.org/2000/svg" xmlns:xlink="http://www.w3.org/1999/xlink" x="0px" y="0px"
	 viewBox="-132 199 346 395" style="enable-background:new -132 199 346 395;" xml:space="preserve">
<style type="text/css">
	.st0{fill:#FFFFFF;}
</style>
<path class="st0" d="M158.4,393.8l-1.2,2.5c-2.1-3.5-5.1-8.9-8.5-14.9c-9.5-16.9-22.4-40.1-35.8-58.2l-0.3-0.4
	c-13.3-16.5-28.1-24.5-45.3-24.5c-5.6,0-11.5,0.9-17.4,2.7c-20.3,6-23.4,18.8-23.8,24c-0.8,10.1,7,29,27.7,38.8v15
	c10.3-2.8,22.9-8.3,23.9-16.5c0.8-6.8-2.7-13.4-8.9-16.4c-18.5-8.8-21.9-16.5-21.6-19.3c1.3-12.4,27.4-16.9,48.7,9.4
	c12.5,17,25.1,39.4,34.2,55.8c3,5.3,5.5,9.9,7.6,13.5L77,536.3c-6-1.6-11.2-2.3-16.5-2.3c-3.3,0-6.3,0.3-9.3,0.5
	c-3.2,0.3-6.6,0.6-10.8,0.6c-2.8,0-5.8-0.1-9.1-0.4C12,533.1-19.1,518-33.3,510c-7-5.2-7.7-8.5-6.4-15.3h-21.2
	c-1.2,10.1,0.6,21.9,15.8,32.9l0.5,0.3l0.5,0.3c4.5,2.6,45.2,25.4,73.8,27.7c3.8,0.3,7.4,0.5,10.8,0.5c5.2,0,9.2-0.4,12.8-0.7
	c2.7-0.2,5-0.4,7.3-0.4c3.8,0,8.7,0.5,18.4,4l2.1,0.8l-1.1,2.3l52.8,24.5l78.4-168.5L158.4,393.8z"/>
<path class="st0" d="M46.2,454.2V374l-5.7-4c-6.1-3.6-11.2-8.1-15.3-12.9V431H-111V252.5H25.2v49.7c4.3-3.6,10.1-6.9,18-9.2
	c1-0.3,2-0.6,3-0.8v-62.9c0-16.7-13.6-30.3-30.3-30.3h-117.6c-16.7,0-30.3,13.6-30.3,30.3v224.9c0,16.7,13.6,30.3,30.3,30.3H15.9
	C32.7,484.5,46.2,471,46.2,454.2L46.2,454.2z M5.2,227c3.6,0,6.5,2.9,6.5,6.5S8.8,240,5.2,240s-6.5-2.9-6.5-6.5S1.6,227,5.2,227
	L5.2,227z M-71,228.2h56.3v3.6H-71V228.2z"/>
<path class="st0" d="M-85.9,398.1v14.6h84v-14.6c0-17-10.6-31.5-25.6-37.3c14-6.6,23.7-20.8,23.7-37.2c0-22.6-18.4-41.1-41.1-41.1
	c-9.3,0-18,3.1-24.9,8.4c-4-1.3-6.3-4.9-6.3-4.9c0.4,3.1,2,5.4,3.7,7.1c-0.3,0.3-0.6,0.6-0.9,0.9c-3.8-0.6-6.5-3.4-6.5-3.4
	c0.9,2.6,2.6,4.4,4.4,5.7c-6.5,7.3-10.4,16.8-10.4,27.3c0,16.8,10.1,31.2,24.6,37.6C-75.8,367.2-85.9,381.4-85.9,398.1L-85.9,398.1z
	"/>
</svg>
