<?xml version="1.0" encoding="utf-8"?>
<!-- Generator: Adobe Illustrator 19.0.0, SVG Export Plug-In . SVG Version: 6.00 Build 0)  -->
<svg version="1.1" id="Layer_1" xmlns="http://www.w3.org/2000/svg" xmlns:xlink="http://www.w3.org/1999/xlink" x="0px" y="0px"
	 viewBox="0 0 130 131.4" style="enable-background:new 0 0 130 131.4;" xml:space="preserve">
<style type="text/css">
	.st0{fill:#FFFFFF;}
</style>
<path class="st0" d="M130,86.7c0-2.3-1.7-3.8-4.1-3.8c-1.4,0-3.7,0.7-5.7,1.9c-2.6-5.6-7-10.5-10.1-12.1c-2.1-1-9-2.2-15.3-2.2
	c-6.3,0-13.3,1.1-15.3,2.2c-3.1,1.5-7.4,6.5-10.1,12.1c-2-1.2-4.3-1.9-5.7-1.9c-1,0-1.9,0.3-2.6,0.8c-0.9,0.7-1.5,1.8-1.5,3
	c0,4.2,3.3,7.2,3.7,7.5c0.3,0.2,0.6,0.4,1,0.5c-1.3,3.6-1.9,7.6-1.9,11c0,4,0.4,10.9,2.7,14.5v4.5c0,3,2.4,5.4,5.4,5.4h5.4
	c3,0,5.4-2.4,5.4-5.4v-1.8c3.3,0.8,8.4,1.8,13.5,1.8s10.3-1,13.5-1.8v1.8c0,3,2.4,5.4,5.4,5.4h5.4c3,0,5.4-2.4,5.4-5.4v-4.5
	c2.3-3.5,2.7-10.4,2.7-14.5c0-3.4-0.6-7.4-1.9-11c0.3-0.1,0.7-0.3,1-0.5C126.7,93.8,130,90.9,130,86.7z M81.9,77.4
	c1-0.5,6.8-1.6,12.9-1.6s11.9,1.1,12.9,1.6c2.1,1,6.8,6.4,8.7,12.3c-5.1,0.7-17.1,2.3-21.6,2.3s-16.5-1.6-21.6-2.3
	C75.1,83.9,79.8,78.5,81.9,77.4z M66.6,89.8c-0.2-0.2-0.4-0.5-0.8-0.9c0.4,0.2,0.7,0.4,1,0.5C66.7,89.6,66.7,89.7,66.6,89.8z
	 M75.8,124.6h-5.4v-2.7h5.4V124.6z M119.2,124.6h-5.4v-2.7h5.4V124.6z M120.4,116.5H111c-0.3,0-0.6,0-0.9,0.1
	c-0.1,0-7.8,2.6-15.4,2.6c-7.6,0-15.3-2.5-15.4-2.6c-0.1,0-0.2,0-0.3,0c-0.2,0-0.4-0.1-0.6-0.1h-9.4c-0.7-1.6-1.5-5.4-1.5-10.8
	c0-0.9,0.1-1.8,0.2-2.7c3.6,0.1,8,1.3,8,2.7c0,1.5,1.2,2.7,2.7,2.7s2.7-1.2,2.7-2.7c0-6.6-8.9-7.8-12.3-8.1c0.3-1,0.7-1.9,1.1-2.8
	c0,0,0,0,0,0c0.8,0.1,18.6,2.7,24.8,2.7s24-2.6,24.8-2.7c0,0,0,0,0,0c0.4,0.9,0.8,1.8,1.1,2.8c-3.4,0.2-12.3,1.5-12.3,8.1
	c0,1.5,1.2,2.7,2.7,2.7s2.7-1.2,2.7-2.7c0-1.4,4.3-2.6,8-2.7c0.1,0.9,0.2,1.8,0.2,2.7C121.9,111.1,121.1,114.8,120.4,116.5z
	 M123,89.8c-0.1-0.1-0.2-0.2-0.3-0.4c0.3-0.2,0.7-0.4,1-0.6C123.5,89.3,123.2,89.6,123,89.8z M116.5,0H13.5C6.1,0,0,6.1,0,13.5V84
	c0,7.5,6.1,13.5,13.5,13.5h40.1c1.5,0,2.7-1.2,2.7-2.7s-1.2-2.7-2.7-2.7H13.5c-4.5,0-8.1-3.6-8.1-8.1V21.7h119.2v53.1
	c0,1.5,1.2,2.7,2.7,2.7c1.5,0,2.7-1.2,2.7-2.7V13.5C130,6.1,123.9,0,116.5,0z M124.6,16.2H5.4v-2.7c0-4.5,3.6-8.1,8.1-8.1h102.9
	c4.5,0,8.1,3.6,8.1,8.1V16.2z M49.9,55.5c-0.2,2.9-1.7,5.9-3.9,7.9c-0.7,0.7-1.1,1.7-0.8,2.7l1.1,4.4c0.2,1,1,1.7,2,2l9.7,2.4
	c1.3,0.3,2.6,1,3.7,1.9c1.1,1,2.9,0.8,3.8-0.3c1-1.1,0.8-2.9-0.3-3.8c-1.8-1.5-3.7-2.5-5.9-3l-8.1-2l-0.3-1.4
	c2.1-2.3,3.6-5.3,4.2-8.4c1.4-0.7,2.5-2.2,2.7-3.9l0.6-4.7c0.2-1.4-0.3-2.9-1.2-3.9c-0.3-0.3-0.6-0.6-1-0.9l0.1-2.9l0.5-0.5
	c1.4-1.5,3.3-4.7,0.3-9.2c-1.4-2.2-4.3-4.8-10.2-4.8c-1.7,0-5.6,0-9.4,2.4C26.3,29.9,25,35.9,25,40.4c0,0.9,0.2,2.6,0.3,4
	c-0.4,0.3-0.8,0.6-1.1,0.9c-1,1.1-1.4,2.5-1.2,4l0.6,4.7c0.2,1.8,1.3,3.2,3,3.9c0.6,3,2,5.8,4,8.1l-0.4,1.6l-8.1,2
	c-6.6,1.6-11.2,7.5-11.2,14.3c0,1.5,1.2,2.7,2.7,2.7h38.2c1.5,0,2.7-1.2,2.7-2.7c0-1.5-1.2-2.7-2.7-2.7l-35.1,0
	c0.9-3.1,3.4-5.6,6.7-6.4l9.7-2.4c1-0.2,1.7-1,2-2l1.2-4.6c0.2-0.9-0.1-2-0.8-2.6c-2.1-2-3.5-4.9-3.7-7.8c-0.1-1.4-1.3-2.2-2.7-2.2
	L28.2,49c0.8,0,1.5-0.3,2-0.9c0.5-0.6,0.8-1.4,0.7-2.1c-0.2-1.6-0.5-4.6-0.5-5.5c0-2.8,0-5.4,7.9-5.5c0.6,0,1.1-0.2,1.5-0.5
	c2.6-1.8,5.5-1.8,7-1.8c4.2,0,5.3,1.7,5.7,2.3c1.1,1.7,0.6,2.2,0.3,2.5l-1.2,1.2c-0.5,0.5-0.8,1.1-0.8,1.8l-0.3,5.9
	c0,0.7,0.1,1.2,0.6,1.8c0.5,0.5,1,0.6,1.8,0.6L52.6,53C51.2,53,50,54.1,49.9,55.5z M116.5,43.3c1.5,0,2.7-1.2,2.7-2.7
	c0-1.5-1.2-2.7-2.7-2.7h-10.8c-1.5,0-2.7,1.2-2.7,2.7c0,1.5,1.2,2.7,2.7,2.7H116.5z M78.5,59.6h37.9c1.5,0,2.7-1.2,2.7-2.7
	c0-1.5-1.2-2.7-2.7-2.7H78.5c-1.5,0-2.7,1.2-2.7,2.7C75.8,58.4,77,59.6,78.5,59.6z M78.5,43.3h16.2c1.5,0,2.7-1.2,2.7-2.7
	c0-1.5-1.2-2.7-2.7-2.7H78.5c-1.5,0-2.7,1.2-2.7,2.7C75.8,42.1,77,43.3,78.5,43.3z M100.2,102.9H89.4c-1.5,0-2.7,1.2-2.7,2.7
	s1.2,2.7,2.7,2.7h10.8c1.5,0,2.7-1.2,2.7-2.7S101.7,102.9,100.2,102.9z"/>
</svg>
