<?xml version="1.0" encoding="utf-8"?>
<!-- Generator: Adobe Illustrator 19.0.0, SVG Export Plug-In . SVG Version: 6.00 Build 0)  -->
<svg version="1.1" id="Layer_1" xmlns="http://www.w3.org/2000/svg" xmlns:xlink="http://www.w3.org/1999/xlink" x="0px" y="0px"
	 viewBox="0 0 130 96.9" style="enable-background:new 0 0 130 96.9;" xml:space="preserve">
<style type="text/css">
	.st0{fill:#FFFFFF;}
</style>
<g>
	<path id="XMLID_35_" class="st0" d="M75.9,36.2H92c1.5,0,2.7-1.2,2.7-2.7c0-1.5-1.2-2.7-2.7-2.7H75.9c-1.5,0-2.7,1.2-2.7,2.7
		C73.2,35,74.4,36.2,75.9,36.2z"/>
	<g>
		<path class="st0" d="M115.7,0H13.9C6.5,0,0.5,6,0.5,13.4V83c0,7.4,6,13.4,13.4,13.4h39.6c1.5,0,2.7-1.2,2.7-2.7
			c0-1.5-1.2-2.7-2.7-2.7H13.9c-4.4,0-8-3.6-8-8V21.4h117.9V74c0,1.5,1.2,2.7,2.7,2.7c1.5,0,2.7-1.2,2.7-2.7V13.4
			C129.1,6,123.1,0,115.7,0z M123.7,16.1H5.9v-2.7c0-4.4,3.6-8,8-8h101.8c4.4,0,8,3.6,8,8V16.1z"/>
		<path id="XMLID_31_" class="st0" d="M113.9,37.4c1.5,0,2.7-1.2,2.7-2.7c0-1.5-1.2-2.7-2.7-2.7h-10.7c-1.5,0-2.7,1.2-2.7,2.7
			c0,1.5,1.2,2.7,2.7,2.7H113.9z"/>
		<path id="XMLID_30_" class="st0" d="M73.7,53.5h37.5c1.5,0,2.7-1.2,2.7-2.7c0-1.5-1.2-2.7-2.7-2.7H73.7c-1.5,0-2.7,1.2-2.7,2.7
			C71,52.3,72.2,53.5,73.7,53.5z"/>
		<g id="XMLID_29_">
			<path id="XMLID_47_" class="st0" d="M113.1,7c5,0,9,4,9,9v64.9c0,5-4,9-9,9H16.5c-5,0-9-4-9-9V16c0-5,4-9,9-9H113.1 M113.1,0
				H16.5c-8.8,0-16,7.2-16,16v64.9c0,8.8,7.2,16,16,16h96.6c8.8,0,16-7.2,16-16V16C129.1,7.2,121.9,0,113.1,0L113.1,0z"/>
		</g>
		<path class="st0" d="M67,75.5c-0.5-1.2-1.3-2.4-2.2-3.4c-0.2-0.5-0.4-0.9-0.8-1.2c-1.4-1.2-2.9-2-4.5-2.6
			c-0.9-0.4-1.8-0.8-2.8-1.2c-0.6-0.2-1.2-0.2-1.7,0l-4.8-1.2l-0.3-1.4c2.1-2.3,3.6-5.2,4.2-8.3c1.4-0.7,2.5-2.1,2.7-3.8l0.6-4.7
			c0.2-1.4-0.3-2.8-1.2-3.9c-0.3-0.3-0.6-0.6-1-0.9l0.1-2.8l0.5-0.5c1.4-1.5,3.3-4.6,0.3-9.1c-1.4-2.1-4.3-4.7-10.1-4.7
			c-1.7,0-5.6,0-9.3,2.4c-11,0.4-12.3,6.3-12.3,10.8c0,0.9,0.2,2.5,0.3,3.9c-0.4,0.3-0.8,0.6-1.1,0.9c-1,1.1-1.4,2.5-1.2,3.9
			l0.6,4.7c0.2,1.7,1.3,3.2,3,3.9c0.6,2.9,2,5.7,4,8L29.4,66l-8,2c-6.5,1.6-11.1,7.5-11.1,14.2c0,1.5,1.2,2.7,2.7,2.7h32.5
			c0.4,0.2,0.8,0.3,1.2,0.3h17.9c1,0,2-0.6,2.5-1.6C67.2,83.2,68.7,79.7,67,75.5z M51.9,79.7c-0.3-0.1-0.7-0.2-1.1-0.2l-34.7,0
			c0.9-3.1,3.4-5.5,6.6-6.3l9.6-2.4c1-0.2,1.7-1,2-1.9l1.1-4.6c0.2-0.9-0.1-1.9-0.8-2.6c-2.1-2-3.5-4.8-3.7-7.7
			c-0.1-1.4-1.3-2.2-2.7-2.2l-0.7-4.3c0.8,0,1.5-0.3,2-0.9c0.5-0.6,0.7-1.3,0.6-2.1C30,42.9,29.6,40,29.6,39c0-2.8,0-5.4,7.8-5.5
			c0.5,0,1.1-0.2,1.5-0.5c2.6-1.8,5.5-1.8,6.9-1.8c4.1,0,5.2,1.7,5.6,2.3c1.1,1.7,0.6,2.1,0.3,2.5l-1.2,1.2
			c-0.5,0.5-0.7,1.1-0.8,1.8l-0.3,5.8c0,0.7,0.1,1.2,0.6,1.8c0.5,0.5,1,0.6,1.7,0.6l-0.3,4.3c-1.4,0-2.6,1.1-2.7,2.5
			c-0.2,2.9-1.7,5.9-3.9,7.8c-0.7,0.7-1,1.7-0.8,2.6l1.1,4.4c0.2,1,1,1.7,1.9,1.9l9.6,2.4c0.1,0,0.1,0,0.1,0
			c2.5,1.2,4.2,2.7,4.9,4.3c0.3,0.8,0.4,1.5,0.4,2.1H51.9z"/>
	</g>
</g>
</svg>
