<?xml version="1.0" encoding="utf-8"?>
<!-- Generator: Adobe Illustrator 22.0.0, SVG Export Plug-In . SVG Version: 6.00 Build 0)  -->
<svg version="1.1" id="Layer_1" xmlns="http://www.w3.org/2000/svg" xmlns:xlink="http://www.w3.org/1999/xlink" x="0px" y="0px"
	 viewBox="0 0 107 133" style="enable-background:new 0 0 107 133;" xml:space="preserve">
<style type="text/css">
	.st0{fill:#FCFCFC;}
	.st1{fill:#F9F9F9;}
</style>
<g>
	<path class="st0" d="M100.4,0H2.7C1.2,0,0,1.2,0,2.7v127.6c0,1.5,1.2,2.7,2.7,2.7h76c0.7,0,1.4-0.3,1.9-0.8l21.7-21.7
		c0.5-0.5,0.8-1.2,0.8-1.9h0V2.7C103.1,1.2,101.9,0,100.4,0L100.4,0z M81.4,123.7v-12.4h12.4L81.4,123.7z M97.7,105.9h-19
		c-1.5,0-2.7,1.2-2.7,2.7v19H5.4V5.4h92.3V105.9z M97.7,105.9"/>
	<path class="st0" d="M17.6,116.7h48.9v-5.4H40.7V86.9h42.1v10.9h5.4V36.6c0-1.5-1.2-2.7-2.7-2.7H17.6c-1.5,0-2.7,1.2-2.7,2.7V114
		C14.9,115.5,16.1,116.7,17.6,116.7L17.6,116.7z M40.7,39.4h42.1v9.5H40.7V39.4z M40.7,54.3h42.1v10.9H40.7V54.3z M40.7,70.6h42.1
		v10.9H40.7V70.6z M20.4,39.4h14.9v9.5H20.4V39.4z M20.4,54.3h14.9v57H20.4V54.3z M20.4,54.3"/>
	<rect x="24.4" y="58.4" class="st0" width="6.8" height="5.4"/>
	<rect x="24.4" y="74.6" class="st0" width="6.8" height="5.4"/>
	<rect x="24.4" y="90.9" class="st0" width="6.8" height="5.4"/>
	<rect x="24.4" y="101.8" class="st0" width="6.8" height="5.4"/>
	<g>
		<path class="st1" d="M16.6,14.8v4.9c0,1.8,0.8,2.6,1.9,2.6c1.2,0,2-0.8,2-2.6v-4.9h1.1v4.8c0,2.5-1.3,3.6-3.1,3.6
			c-1.7,0-3-1-3-3.5v-4.8H16.6z"/>
		<path class="st1" d="M25,15.7h-2.5v-0.9h6.1v0.9h-2.5v7.3H25V15.7z"/>
		<path class="st1" d="M30.6,14.8v8.2h-1.1v-8.2H30.6z"/>
		<path class="st1" d="M32.4,14.8h1.1v7.3H37v0.9h-4.6V14.8z"/>
		<path class="st1" d="M39.2,14.8v8.2h-1.1v-8.2H39.2z"/>
		<path class="st1" d="M42.7,15.7h-2.5v-0.9h6.1v0.9h-2.5v7.3h-1.1V15.7z"/>
		<path class="st1" d="M49.3,23.1v-3.5l-2.6-4.7h1.2l1.2,2.3c0.3,0.6,0.6,1.1,0.8,1.7h0c0.2-0.5,0.5-1.1,0.8-1.7l1.2-2.3h1.2
			l-2.8,4.7v3.5H49.3z"/>
		<path class="st1" d="M56.7,14.9c0.5-0.1,1.2-0.2,1.9-0.2c1.1,0,1.7,0.2,2.3,0.6c0.4,0.3,0.7,0.8,0.7,1.5c0,0.8-0.5,1.5-1.4,1.8v0
			c0.8,0.2,1.7,0.8,1.7,2.1c0,0.7-0.3,1.2-0.7,1.6c-0.6,0.5-1.5,0.8-2.8,0.8c-0.7,0-1.3,0-1.6-0.1V14.9z M57.8,18.3h1
			c1.1,0,1.8-0.6,1.8-1.4c0-1-0.7-1.3-1.8-1.3c-0.5,0-0.8,0-0.9,0.1V18.3z M57.8,22.3c0.2,0,0.5,0,0.9,0c1.1,0,2.1-0.4,2.1-1.6
			c0-1.1-1-1.6-2.1-1.6h-0.9V22.3z"/>
		<path class="st1" d="M64.4,14.8v8.2h-1.1v-8.2H64.4z"/>
		<path class="st1" d="M66.2,14.8h1.1v7.3h3.5v0.9h-4.6V14.8z"/>
		<path class="st1" d="M72,14.8h1.1v7.3h3.5v0.9H72V14.8z"/>
	</g>
</g>
</svg>
