<?xml version="1.0" encoding="utf-8"?>
<!-- Generator: Adobe Illustrator 19.0.0, SVG Export Plug-In . SVG Version: 6.00 Build 0)  -->
<svg version="1.1" id="Layer_1" xmlns="http://www.w3.org/2000/svg" xmlns:xlink="http://www.w3.org/1999/xlink" x="0px" y="0px"
	 viewBox="0 0 1000 492.9" style="enable-background:new 0 0 1000 492.9;" xml:space="preserve">
<style type="text/css">
	.st0{fill:url(#SVGID_1_);}
	.st1{fill:#161616;}
</style>
<g>
	<linearGradient id="SVGID_1_" gradientUnits="userSpaceOnUse" x1="499.7156" y1="-2.244815e-08" x2="499.7156" y2="492.8642">
		<stop  offset="0" style="stop-color:#1A1A1A"/>
		<stop  offset="0.9996" style="stop-color:#000000"/>
	</linearGradient>
	<rect x="-0.3" class="st0" width="1000" height="492.9"/>
</g>
<g>
	<g>
		<path class="st1" d="M277.7,376.8L379.8,357c6.5-1.3,10.8-7.6,9.5-14.1l-29.7-153.2c-1.3-6.5-7.6-10.8-14.1-9.5L243.5,200
			c-6.5,1.3-10.8,7.6-9.5,14.1l29.7,153.2C264.9,373.7,271.2,378,277.7,376.8z M287.4,295.2c-3.3-3.7-5-7.3-6-12.1
			c-2.4-12.2,5.6-19.5,13.9-21.2c7-1.4,11.4,1.3,13.7,3.7c1.3-3.1,4.4-7.2,11.4-8.5c8.4-1.6,18.5,2.2,20.8,14.4
			c0.9,4.8,0.6,8.9-1,13.5c-1.6,4.5-5.7,10.5-12.2,17.7c-2.5,2.8-4.9,5.2-6.4,6.8c-2.8,2.8-3.1,3-3.5,3.1c0,0,0,0-0.1,0
			c-0.4,0.1-0.5,0.1-4.4-1.6c-2-0.9-5.1-2.2-8.5-3.9C296.6,302.7,290.6,298.7,287.4,295.2z"/>
	</g>
	<g>
		<path class="st1" d="M756.6,205.5l-100.9-25.4c-6.4-1.6-13,2.3-14.6,8.7l-38.1,151.3c-1.6,6.4,2.3,13,8.7,14.6l100.9,25.4
			c6.4,1.6,13-2.3,14.6-8.7l38.1-151.3C766.9,213.7,763,207.2,756.6,205.5z M714,292c-3.5,12-13.9,14.8-22.1,12.5
			c-3.7-1.1-6.1-2.8-7.8-4.7l-0.2,9.2l-12.3-3.6l4.7-7.8c-2.4,0.7-5.4,0.8-8.9-0.3c-8.2-2.4-15.4-10.4-11.9-22.4
			c1.4-4.7,3.5-8.2,7.1-11.5c3.5-3.3,9.9-6.7,18.9-10.2c3.5-1.4,6.7-2.4,8.8-3.1c4-1.3,4.1-1.3,4.5-1.1c0.4,0.1,0.5,0.1,3.2,3.4
			c1.4,1.7,3.5,4.3,5.8,7.3c5.8,7.8,9.3,14.1,10.5,18.7C715.4,283.3,715.4,287.3,714,292z"/>
	</g>
	<g>
		<path class="st1" d="M504.8,334l-11.2-155.6c-0.5-6.6-6.2-11.6-12.8-11.1l-103.7,7.5c-6.6,0.5-11.6,6.2-11.1,12.8l11.2,155.6
			c0.5,6.6,6.2,11.6,12.8,11.1l103.7-7.5C500.3,346.4,505.3,340.6,504.8,334z M429.3,288.7l3.4-11.1c-2.7,2.4-6.3,3.8-10.2,3.8
			c-8.4-0.1-15.2-7.1-15.1-15.5c0.1-8.2,6.8-14.9,14.9-15.1c-0.5-1.5-0.7-3.2-0.7-4.8c0.1-8.4,7.1-15.2,15.5-15.1
			c8.4,0.1,15.2,7.1,15.1,15.5c0,1.7-0.3,3.3-0.8,4.8c8.2,0.4,14.6,7.3,14.5,15.5c-0.1,8.4-7.1,15.2-15.5,15.1
			c-4-0.1-7.6-1.6-10.3-4.2l3.2,11.3L429.3,288.7z"/>
	</g>
	<g>
		<path class="st1" d="M619,343.6l10.6-155.6c0.4-6.6-4.6-12.3-11.2-12.8l-103.8-7.1c-6.6-0.4-12.3,4.6-12.8,11.2l-10.6,155.6
			c-0.4,6.6,4.6,12.3,11.2,12.8l103.8,7.1C612.8,355.2,618.5,350.2,619,343.6z M558,291.6l-23.3-32.2l28.1-28.1l23.3,32.2L558,291.6
			z"/>
	</g>
</g>
</svg>
