<?xml version="1.0" encoding="utf-8"?>
<!-- Generator: Adobe Illustrator 22.0.0, SVG Export Plug-In . SVG Version: 6.00 Build 0)  -->
<svg version="1.1" id="Layer_1" xmlns="http://www.w3.org/2000/svg" xmlns:xlink="http://www.w3.org/1999/xlink" x="0px" y="0px"
	 viewBox="0 0 169 180" style="enable-background:new 0 0 169 180;" xml:space="preserve">
<style type="text/css">
	.st0{fill:#FFFFFF;}
	.st1{fill:none;stroke:#FFFFFF;stroke-width:8;stroke-linecap:round;stroke-linejoin:round;stroke-miterlimit:10;}
</style>
<g>
	<g>
		<path class="st0" d="M150,175H16.9c-4.9,0-9-4-9-9V9c0-4.9,4-9,9-9H150c4.9,0,9,4,9,9V166C159,171,154.9,175,150,175z M16.9,6
			c-1.6,0-3,1.3-3,3V166c0,1.6,1.3,3,3,3H150c1.6,0,3-1.3,3-3V9c0-1.6-1.3-3-3-3H16.9z"/>
	</g>
	<g>
		<path class="st1" d="M79.7,42.6"/>
	</g>
	<g>
		<path class="st1" d="M79.7,42.6"/>
	</g>
	<g>
		<g>
			<g>
				<path class="st0" d="M143.4,43.6H75c-1,0-1.9-0.6-2.2-1.6c-0.3-1,0-2,0.8-2.6l34.2-25c0.8-0.6,1.9-0.6,2.7,0l34.2,25
					c0.8,0.6,1.1,1.6,0.8,2.6C145.3,43,144.4,43.6,143.4,43.6z M82,39h54.3l-27.1-19.8L82,39z"/>
			</g>
		</g>
		<g>
			<g>
				<path class="st0" d="M93,77.7H80.3c-1.3,0-2.3-1-2.3-2.3V41.3c0-1.3,1-2.3,2.3-2.3H93c1.3,0,2.3,1,2.3,2.3v34.1
					C95.3,76.7,94.3,77.7,93,77.7z M82.6,73.1h8.1V43.6h-8.1V73.1z"/>
			</g>
		</g>
		<g>
			<g>
				<path class="st0" d="M115.5,77.7h-12.7c-1.3,0-2.3-1-2.3-2.3V41.3c0-1.3,1-2.3,2.3-2.3h12.7c1.3,0,2.3,1,2.3,2.3v34.1
					C117.8,76.7,116.8,77.7,115.5,77.7z M105.1,73.1h8.1V43.6h-8.1V73.1z"/>
			</g>
		</g>
		<g>
			<g>
				<path class="st0" d="M138,77.7h-12.7c-1.3,0-2.3-1-2.3-2.3V41.3c0-1.3,1-2.3,2.3-2.3H138c1.3,0,2.3,1,2.3,2.3v34.1
					C140.3,76.7,139.3,77.7,138,77.7z M127.6,73.1h8.1V43.6h-8.1V73.1z"/>
			</g>
		</g>
		<g>
			<g>
				<path class="st0" d="M143.2,87.5H75.1c-1.3,0-2.3-1-2.3-2.3c0-1.3,1-2.3,2.3-2.3h68.1c1.3,0,2.3,1,2.3,2.3
					C145.5,86.5,144.5,87.5,143.2,87.5z"/>
			</g>
		</g>
	</g>
	<g>
		<path class="st0" d="M139.5,108.1H23.6c-1.4,0-2.6-1.2-2.6-2.6c0-1.4,1.2-2.6,2.6-2.6h115.9c1.4,0,2.6,1.2,2.6,2.6
			C142.1,106.9,141,108.1,139.5,108.1z"/>
	</g>
	<g>
		<path class="st0" d="M86.8,128.6H23.2c-1.4,0-2.6-1.2-2.6-2.6c0-1.4,1.2-2.6,2.6-2.6h63.6c1.4,0,2.6,1.2,2.6,2.6
			C89.4,127.5,88.2,128.6,86.8,128.6z"/>
	</g>
	<g>
		<path class="st0" d="M83.1,145.1H23.2c-1.4,0-2.6-1.2-2.6-2.6c0-1.4,1.2-2.6,2.6-2.6h59.8c1.4,0,2.6,1.2,2.6,2.6
			C85.7,143.9,84.5,145.1,83.1,145.1z"/>
	</g>
	<g>
		<path class="st0" d="M139.1,128.6H113c-1.4,0-2.6-1.2-2.6-2.6c0-1.4,1.2-2.6,2.6-2.6h26.2c1.4,0,2.6,1.2,2.6,2.6
			C141.8,127.5,140.6,128.6,139.1,128.6z"/>
	</g>
	<g>
		<path class="st0" d="M140.6,145.1H113c-1.4,0-2.6-1.2-2.6-2.6c0-1.4,1.2-2.6,2.6-2.6h27.7c1.4,0,2.6,1.2,2.6,2.6
			C143.3,143.9,142.1,145.1,140.6,145.1z"/>
	</g>
	<g>
		<path class="st0" d="M20.9,18c0.9-0.2,2.4-0.3,3.8-0.3c2.1,0,3.4,0.4,4.4,1.2c0.8,0.6,1.3,1.6,1.3,2.9c0,1.6-1,2.9-2.7,3.6v0
			c1.5,0.4,3.3,1.7,3.3,4.1c0,1.4-0.6,2.5-1.4,3.2c-1.1,1-3,1.5-5.6,1.5c-1.4,0-2.5-0.1-3.2-0.2V18z M23,24.7h1.9
			c2.2,0,3.5-1.2,3.5-2.7c0-1.9-1.4-2.6-3.6-2.6c-1,0-1.5,0.1-1.9,0.1V24.7z M23,32.4c0.4,0.1,1,0.1,1.8,0.1c2.2,0,4.2-0.8,4.2-3.1
			c0-2.2-1.9-3.1-4.2-3.1H23V32.4z"/>
		<path class="st0" d="M36.6,28.9L34.9,34h-2.2l5.5-16.2h2.5L46.3,34h-2.2l-1.7-5.1H36.6z M41.9,27.3l-1.6-4.7c-0.4-1.1-0.6-2-0.8-3
			h0c-0.2,1-0.5,1.9-0.8,2.9L37,27.3H41.9z"/>
		<path class="st0" d="M48.7,34V17.8H51l5.2,8.2c1.2,1.9,2.1,3.6,2.9,5.3l0,0c-0.2-2.2-0.2-4.1-0.2-6.7v-6.8h2V34h-2.1l-5.1-8.2
			c-1.1-1.8-2.2-3.7-3-5.4l-0.1,0c0.1,2,0.2,4,0.2,6.7V34H48.7z"/>
		<path class="st0" d="M64.5,17.8h2.1v7.8h0.1c0.4-0.6,0.9-1.2,1.3-1.7l5-6.1h2.6l-5.9,6.9l6.3,9.3h-2.5l-5.3-8l-1.5,1.8V34h-2.1
			V17.8z"/>
	</g>
</g>
</svg>
