<?xml version="1.0" encoding="utf-8"?>
<!-- Generator: Adobe Illustrator 22.0.0, SVG Export Plug-In . SVG Version: 6.00 Build 0)  -->
<svg version="1.1" id="Layer_1" xmlns="http://www.w3.org/2000/svg" xmlns:xlink="http://www.w3.org/1999/xlink" x="0px" y="0px"
	 viewBox="0 0 107 133" style="enable-background:new 0 0 107 133;" xml:space="preserve">
<style type="text/css">
	.st0{fill:#FFFFFF;}
</style>
<g>
	<g>
		<path class="st0" d="M89.2,112.9H16.5c-8.3,0-15-6.7-15-15V35.5c0-8.3,6.7-15,15-15h72.7c8.3,0,15,6.7,15,15v62.4
			C104.1,106.2,97.4,112.9,89.2,112.9z M16.5,27.3c-4.5,0-8.1,3.6-8.1,8.1v62.4c0,4.5,3.6,8.1,8.1,8.1h72.7c4.5,0,8.1-3.6,8.1-8.1
			V35.5c0-4.5-3.6-8.1-8.1-8.1H16.5V27.3z"/>
	</g>
	<g>
		<rect x="4.1" y="47" class="st0" width="95.8" height="6.8"/>
	</g>
	<g>
		<rect x="4.1" y="35" class="st0" width="95.8" height="6.8"/>
	</g>
	<g>
		<path class="st0" d="M105,101.8H62.2v-0.2c-10.6-1.3-18.8-10.3-18.8-21.2s8.2-20,18.8-21.2V59h1.6c0.4,0,0.9,0,1.3,0h0.5H105
			V101.8z M69.1,94.9h29.1V65.8H69.1V66l-4-0.2c-0.1,0-0.2,0-0.3,0c-8,0-14.5,6.5-14.5,14.5s6.5,14.5,14.5,14.5c0.1,0,0.2,0,0.3,0
			l4-0.2V94.9z"/>
	</g>
	<g>
		<g>
			<path class="st0" d="M17.6,81.4c0.1,6.4,4.2,9,8.9,9c3.4,0,5.4-0.6,7.2-1.3l0.8,3.4C32.8,93.2,30,94,25.9,94
				c-8,0-12.8-5.3-12.8-13.1s4.6-14,12.2-14C33.8,67,36,74.4,36,79.2c0,1-0.1,1.7-0.2,2.2H17.6z M31.4,78c0.1-3-1.2-7.7-6.5-7.7
				c-4.8,0-6.9,4.4-7.2,7.7H31.4z"/>
		</g>
	</g>
</g>
</svg>
