<?xml version="1.0" encoding="utf-8"?>
<!-- Generator: Adobe Illustrator 22.0.0, SVG Export Plug-In . SVG Version: 6.00 Build 0)  -->
<svg version="1.1" id="Layer_1" xmlns="http://www.w3.org/2000/svg" xmlns:xlink="http://www.w3.org/1999/xlink" x="0px" y="0px"
	 viewBox="0 0 107 133" style="enable-background:new 0 0 107 133;" xml:space="preserve">
<style type="text/css">
	.st0{fill:#FFFFFF;}
</style>
<g>
	<g>
		<path class="st0" d="M89.2,92.9H16.5c-8.3,0-15-6.7-15-15V15.5c0-8.3,6.7-15,15-15h72.7c8.3,0,15,6.7,15,15v62.4
			C104.1,86.2,97.4,92.9,89.2,92.9z M16.5,7.3c-4.5,0-8.1,3.6-8.1,8.1v62.4c0,4.5,3.6,8.1,8.1,8.1h72.7c4.5,0,8.1-3.6,8.1-8.1V15.5
			c0-4.5-3.6-8.1-8.1-8.1H16.5z"/>
	</g>
	<g>
		<rect x="4.1" y="27" class="st0" width="95.8" height="6.8"/>
	</g>
	<g>
		<rect x="4.1" y="15" class="st0" width="95.8" height="6.8"/>
	</g>
	<g>
		<path class="st0" d="M105,81.8H62.2v-0.2c-10.6-1.3-18.8-10.3-18.8-21.2s8.2-20,18.8-21.2V39l1.6,0c0.4,0,0.9,0,1.3,0l0.5,0H105
			V81.8z M69.1,74.9h29.1V45.8H69.1V46l-4-0.2c-0.1,0-0.2,0-0.3,0c-8,0-14.5,6.5-14.5,14.5s6.5,14.5,14.5,14.5c0.1,0,0.2,0,0.3,0
			l4-0.2V74.9z"/>
	</g>
	<g>
		<g>
			<path class="st0" d="M17.6,61.4c0.1,6.4,4.2,9,8.9,9c3.4,0,5.4-0.6,7.2-1.3l0.8,3.4C32.8,73.2,30,74,25.9,74
				c-8,0-12.8-5.3-12.8-13.1c0-7.8,4.6-14,12.2-14C33.8,47,36,54.4,36,59.2c0,1-0.1,1.7-0.2,2.2H17.6z M31.4,58
				c0.1-3-1.2-7.7-6.5-7.7c-4.8,0-6.9,4.4-7.2,7.7H31.4z"/>
		</g>
	</g>
</g>
</svg>
