<?xml version="1.0" encoding="utf-8"?>
<!-- Generator: Adobe Illustrator 22.0.0, SVG Export Plug-In . SVG Version: 6.00 Build 0)  -->
<svg version="1.1" id="Layer_1" xmlns="http://www.w3.org/2000/svg" xmlns:xlink="http://www.w3.org/1999/xlink" x="0px" y="0px"
	 viewBox="0 0 137 123.4" style="enable-background:new 0 0 137 123.4;" xml:space="preserve">
<style type="text/css">
	.st0{fill:#FFFFFF;}
</style>
<g>
	<path class="st0" d="M80.6,50.1h17.1c1.6,0,2.8-1.3,2.8-2.8c0-1.6-1.3-2.8-2.8-2.8H80.6c-1.6,0-2.8,1.3-2.8,2.8
		C77.7,48.8,79,50.1,80.6,50.1z"/>
	<g>
		<path class="st0" d="M122.8,11.7H14.7c-7.8,0-14.2,6.4-14.2,14.2v73.9c0,7.8,6.4,14.2,14.2,14.2h42.1c1.6,0,2.8-1.3,2.8-2.8
			c0-1.6-1.3-2.8-2.8-2.8H14.7c-4.7,0-8.5-3.8-8.5-8.5V34.4h125.1v55.8c0,1.6,1.3,2.8,2.8,2.8s2.8-1.3,2.8-2.8V25.9
			C137,18.1,130.6,11.7,122.8,11.7z M131.3,28.8H6.2v-2.8c0-4.7,3.8-8.5,8.5-8.5h108.1c4.7,0,8.5,3.8,8.5,8.5V28.8z"/>
		<path class="st0" d="M120.9,51.4c1.6,0,2.8-1.3,2.8-2.8c0-1.6-1.3-2.8-2.8-2.8h-11.4c-1.6,0-2.8,1.3-2.8,2.8
			c0,1.6,1.3,2.8,2.8,2.8H120.9z"/>
		<path class="st0" d="M78.2,68.5H118c1.6,0,2.8-1.3,2.8-2.8s-1.3-2.8-2.8-2.8H78.2c-1.6,0-2.8,1.3-2.8,2.8S76.6,68.5,78.2,68.5z"/>
		<g>
			<path class="st0" d="M121,18.7c5,0,9,4,9,9v70.9c0,5-4,9-9,9H16.5c-5,0-9-4-9-9V27.7c0-5,4-9,9-9H121 M121,11.7H16.5
				c-8.8,0-16,7.2-16,16v70.9c0,8.8,7.2,16,16,16H121c8.8,0,16-7.2,16-16V27.7C137,18.9,129.8,11.7,121,11.7L121,11.7z"/>
		</g>
		<path class="st0" d="M71.1,91.9c-0.5-1.3-1.3-2.5-2.4-3.6c-0.2-0.5-0.4-0.9-0.9-1.3c-1.5-1.2-3.1-2.1-4.8-2.7
			c-0.9-0.5-1.9-0.9-3-1.3c-0.6-0.2-1.3-0.2-1.8,0l-5.1-1.3l-0.4-1.4c2.2-2.4,3.8-5.6,4.4-8.8c1.5-0.8,2.6-2.3,2.8-4.1l0.6-4.9
			c0.2-1.5-0.3-3-1.3-4.1c-0.3-0.4-0.7-0.7-1-0.9l0.1-3l0.5-0.5c1.5-1.6,3.5-4.9,0.3-9.7c-1.5-2.3-4.6-5-10.7-5
			c-1.8,0-5.9,0-9.9,2.5c-11.7,0.4-13.1,6.7-13.1,11.5c0,0.9,0.2,2.7,0.3,4.2c-0.4,0.3-0.8,0.6-1.1,1c-1,1.1-1.5,2.7-1.3,4.2
			l0.6,4.9c0.2,1.9,1.4,3.4,3.1,4.1c0.6,3.1,2.1,6.1,4.2,8.5l-0.4,1.7l-8.5,2.1c-6.9,1.7-11.7,7.9-11.7,15c0,1.6,1.3,2.8,2.8,2.8
			h34.5c0.4,0.2,0.8,0.3,1.3,0.3h19c1.1,0,2.1-0.6,2.6-1.6C71.3,100,72.9,96.3,71.1,91.9z M55,96.3c-0.3-0.2-0.7-0.2-1.1-0.2L17,96
			c1-3.2,3.6-5.8,7-6.7l10.2-2.5c1-0.3,1.8-1,2.1-2.1l1.2-4.9c0.3-1-0.1-2.1-0.8-2.8C34.5,75,33,72,32.8,69
			c-0.1-1.5-1.4-2.3-2.9-2.3l-0.7-4.5c0.8,0,1.6-0.4,2.1-1c0.5-0.6,0.8-1.4,0.7-2.2c-0.2-1.7-0.6-4.8-0.6-5.8c0-2.9,0-5.7,8.3-5.8
			c0.6,0,1.1-0.2,1.6-0.5c2.7-1.9,5.8-1.9,7.3-1.9c4.4,0,5.6,1.8,6,2.4c1.2,1.8,0.7,2.3,0.4,2.6l-1.2,1.2C53.3,51.6,53,52.3,53,53
			l-0.3,6.2c0,0.8,0.1,1.3,0.6,1.9c0.5,0.6,1.1,0.7,1.9,0.7l-0.4,4.6c-1.5,0-2.7,1.1-2.8,2.6c-0.2,3.1-1.8,6.2-4.1,8.3
			c-0.8,0.7-1.1,1.8-0.9,2.8l1.2,4.6c0.3,1,1,1.8,2.1,2.1l10.2,2.5c0.1,0,0.1,0,0.2,0c2.7,1.3,4.5,2.9,5.2,4.6
			c0.4,0.8,0.5,1.6,0.4,2.3H55z"/>
	</g>
</g>
</svg>
